<svg height="349.024615" viewBox="0 0 54.75 66.5" width="286.512744" xmlns="http://www.w3.org/2000/svg"><g transform="matrix(1.25 0 0 -1.25 0 66.5)"><g fill="#00ae4d"><path d="m33.156978 51.513064h-23.061v-38.15h23.061zm-23.3019999.483h23.7839999v-39.115h-24.0249999v39.115"/><path d="m0 0h-.217l-1.288 2.14c-.403.664-.606 1.206-.606 1.626 0 .446.173.799.518 1.059.341.258.815.388 1.417.388.619 0 1.113-.128 1.482-.383.365-.252.548-.596.548-1.032 0-.276-.078-.579-.234-.914s-.693-1.296-1.62-2.884" fill-rule="evenodd" transform="translate(21.804978 20.285064)"/><path d="m0 0h-.217l-1.288-2.14c-.403-.664-.606-1.206-.606-1.626 0-.445.173-.799.518-1.059.341-.258.815-.388 1.417-.388.619 0 1.113.128 1.482.383.365.252.548.597.548 1.032 0 .276-.078.579-.234.914s-.693 1.296-1.62 2.884" fill-rule="evenodd" transform="translate(21.804978 19.228064)"/><path d="m0 0-.109-.187c.795-.931 1.881-2.768 2.857-3.362.355-.217.723-.239 1.104-.067.377.169.686.418.988.937.312.534.459 1.022.442 1.463-.017.438-.2.763-.547.974-.22.134-.5.214-.844.242-.345.028-2.161.03-3.891 0" fill-rule="evenodd" transform="translate(21.981978 19.596064)"/><path d="m0 0-.109.187c.795.931 1.881 2.768 2.857 3.362.355.217.723.239 1.104.067.377-.169.686-.418.988-.937.312-.534.459-1.022.442-1.463-.017-.438-.2-.763-.547-.974-.22-.134-.5-.214-.844-.242-.345-.028-2.161-.03-3.891 0" fill-rule="evenodd" transform="translate(21.981978 19.948064)"/><path d="m0 0 .109-.187c-.795-.931-1.881-2.768-2.857-3.362-.354-.217-.722-.239-1.103-.067-.377.169-.686.418-.989.937-.312.534-.459 1.022-.442 1.463.017.438.2.763.547.974.22.134.5.214.845.242s2.16.03 3.89 0" fill-rule="evenodd" transform="translate(21.340978 19.596064)"/><path d="m0 0 .109.187c-.795.931-1.881 2.768-2.857 3.362-.354.217-.722.239-1.103.067-.377-.169-.686-.418-.989-.937-.312-.534-.459-1.022-.442-1.463.017-.438.2-.763.547-.974.22-.134.5-.214.845-.242s2.16-.03 3.89 0" fill-rule="evenodd" transform="translate(21.340978 19.948064)"/><path d="m0 0h-.135l-.801 1.331c-.25.412-.377.749-.377 1.01 0 .277.108.497.322.659.213.16.507.241.882.241.385 0 .692-.08.921-.238.227-.157.341-.372.341-.642 0-.172-.049-.361-.145-.569-.097-.207-.432-.804-1.008-1.792" fill-rule="evenodd" transform="translate(29.002978 26.734064)"/><path d="m0 0h-.135l-.801-1.331c-.25-.412-.377-.749-.377-1.01 0-.277.108-.497.322-.659.213-.16.507-.241.882-.241.385 0 .692.079.921.238.227.157.341.372.341.642 0 .172-.049.36-.145.569-.097.207-.432.804-1.008 1.792" fill-rule="evenodd" transform="translate(29.002978 26.077064)"/><path d="m0 0-.068-.116c.494-.579 1.17-1.721 1.776-2.09.22-.134.449-.148.686-.042.234.106.427.26.615.583.194.332.285.635.274.909-.01.272-.124.474-.339.606-.137.083-.311.132-.526.15-.214.017-1.342.018-2.418 0" fill-rule="evenodd" transform="translate(29.112978 26.307064)"/><path d="m0 0-.068.116c.494.579 1.17 1.721 1.776 2.09.22.134.449.148.686.042.234-.106.427-.26.615-.583.194-.331.285-.635.274-.909-.01-.272-.124-.474-.339-.606-.137-.083-.311-.132-.526-.15-.214-.017-1.342-.018-2.418 0" fill-rule="evenodd" transform="translate(29.112978 26.525064)"/><path d="m0 0 .067-.116c-.494-.579-1.17-1.721-1.776-2.09-.219-.134-.449-.148-.686-.042-.234.106-.427.26-.615.583-.194.332-.285.635-.274.909.01.272.124.474.339.606.137.083.311.132.526.15.215.017 1.342.018 2.419 0" fill-rule="evenodd" transform="translate(28.714978 26.307064)"/><path d="m0 0 .067.116c-.494.579-1.17 1.721-1.776 2.09-.219.134-.449.148-.686.042-.234-.106-.427-.26-.615-.583-.194-.331-.285-.635-.274-.909.01-.272.124-.474.339-.606.137-.083.311-.132.526-.15.215-.017 1.342-.018 2.419 0" fill-rule="evenodd" transform="translate(28.714978 26.525064)"/><path d="m0 0h-.135l-.801 1.331c-.251.412-.377.749-.377 1.01 0 .277.108.497.322.659.213.16.507.241.882.241.385 0 .692-.08.921-.238.227-.157.341-.372.341-.642 0-.172-.049-.361-.145-.569-.097-.207-.432-.804-1.008-1.792" fill-rule="evenodd" transform="translate(14.513978 26.734064)"/><path d="m0 0h-.135l-.801-1.331c-.251-.412-.377-.749-.377-1.01 0-.277.108-.497.322-.659.213-.16.507-.241.882-.241.385 0 .692.079.921.238.227.157.341.372.341.642 0 .172-.049.36-.145.569-.097.207-.432.804-1.008 1.792" fill-rule="evenodd" transform="translate(14.513978 26.077064)"/><path d="m0 0-.068-.116c.494-.579 1.17-1.721 1.776-2.09.22-.134.449-.148.686-.042.234.106.427.26.615.583.194.332.285.635.274.909-.01.272-.124.474-.339.606-.137.083-.311.132-.526.15-.214.017-1.342.018-2.418 0" fill-rule="evenodd" transform="translate(14.623978 26.307064)"/><path d="m0 0-.068.116c.494.579 1.17 1.721 1.776 2.09.22.134.449.148.686.042.234-.106.427-.26.615-.583.194-.331.285-.635.274-.909-.01-.272-.124-.474-.339-.606-.137-.083-.311-.132-.526-.15-.214-.017-1.342-.018-2.418 0" fill-rule="evenodd" transform="translate(14.623978 26.525064)"/><path d="m0 0 .068-.116c-.494-.579-1.17-1.721-1.776-2.09-.22-.134-.449-.148-.686-.042-.234.106-.427.26-.615.583-.194.332-.285.635-.274.909.01.272.124.474.339.606.137.083.311.132.526.15.214.017 1.342.018 2.418 0" fill-rule="evenodd" transform="translate(14.225978 26.307064)"/><path d="m0 0 .068.116c-.494.579-1.17 1.721-1.776 2.09-.22.134-.449.148-.686.042-.234-.106-.427-.26-.615-.583-.194-.331-.285-.635-.274-.909.01-.272.124-.474.339-.606.137-.083.311-.132.526-.15.214-.017 1.342-.018 2.418 0" fill-rule="evenodd" transform="translate(14.225978 26.525064)"/><path d="m0 0c-.201-.012-.489-.168-.565-.26-.545-.661-1.582-1.22-2.298-.76-.145.093-.328.242-.407.4-.182.36-.157.642.073.953.128.172.195.259.194.264-.004.033-.128.192-.327.477l-.09.209c-.17.87 1.072 1.579 1.777 1.217.193-.099.436-.204.611-.354.388-.328.675-.734 1.132-.767.417-.028.953.88 1.599 1.158.761.325 1.913-.293 1.761-1.217l-.091-.21c-.198-.285-.322-.444-.326-.477 0-.005.065-.092.194-.264.229-.31.254-.593.073-.953-.08-.158-.263-.307-.406-.4-.718-.461-1.806.008-2.336.706-.144.189-.351.291-.568.278" fill-rule="evenodd" transform="translate(21.646978 31.308064)"/><path d="m0 0c-.201-.012-.489-.168-.565-.26-.545-.661-1.582-1.221-2.298-.76-.145.093-.328.242-.407.4-.182.36-.157.642.073.953.128.172.195.259.194.264-.004.033-.128.192-.327.477l-.09.21c-.17.869 1.072 1.578 1.777 1.216.193-.099.436-.204.611-.354.388-.328.675-.735 1.132-.767.417-.028.953.88 1.599 1.158.761.325 1.913-.293 1.761-1.217l-.091-.21c-.198-.285-.322-.444-.326-.477 0-.005.065-.092.194-.264.229-.31.254-.593.073-.953-.08-.158-.263-.307-.406-.4-.718-.461-1.806.008-2.336.706-.144.189-.351.291-.568.278" fill-rule="evenodd" transform="translate(21.646978 35.488064)"/><path d="m0 0c-.201-.012-.489-.168-.565-.26-.545-.661-1.582-1.22-2.298-.76-.145.093-.328.242-.407.4-.182.36-.157.642.073.953.128.172.195.259.194.264-.004.033-.128.192-.327.477l-.09.21c-.17.869 1.072 1.578 1.777 1.217.193-.1.436-.205.611-.355.388-.328.675-.734 1.132-.766.417-.028.953.879 1.599 1.157.761.325 1.913-.293 1.761-1.217l-.091-.21c-.198-.285-.322-.444-.326-.477 0-.005.065-.092.194-.264.229-.31.254-.593.073-.953-.08-.158-.263-.307-.406-.4-.718-.46-1.806.008-2.336.706-.144.189-.351.291-.568.278" fill-rule="evenodd" transform="translate(21.646978 39.773064)"/><path d="m0 0c-.201-.012-.489-.168-.565-.26-.545-.661-1.582-1.22-2.298-.76-.145.093-.328.242-.407.4-.182.36-.157.642.073.952.128.173.195.26.194.265-.004.033-.128.192-.327.477l-.09.21c-.17.869 1.072 1.578 1.777 1.216.193-.099.436-.204.611-.354.388-.328.675-.735 1.132-.766.417-.028.953.879 1.599 1.157.761.325 1.913-.293 1.761-1.217l-.091-.21c-.198-.285-.322-.444-.326-.477 0-.005.065-.092.194-.264.229-.31.254-.593.073-.953-.08-.158-.263-.307-.406-.4-.718-.46-1.806.008-2.336.706-.144.189-.351.291-.568.278" fill-rule="evenodd" transform="translate(21.646978 44.006064)"/><path d="m0 0c-.146-.008-.356-.122-.411-.19-.398-.481-1.154-.889-1.677-.554-.105.068-.237.177-.295.292-.133.262-.114.468.053.694.093.126.141.19.141.193-.004.024-.094.14-.237.348l-.066.153c-.124.633.78 1.15 1.294.886.141-.072.318-.149.447-.258.282-.238.491-.535.824-.558.304-.021.695.64 1.167.843.553.237 1.393-.214 1.282-.887l-.066-.153c-.145-.208-.235-.324-.238-.347-.001-.004.048-.068.141-.193.168-.226.186-.432.054-.695-.058-.114-.192-.224-.297-.291-.523-.336-1.316.005-1.702.514-.104.138-.255.212-.414.203" fill-rule="evenodd" transform="translate(21.651978 47.858064)"/><path d="m0 0c-.201-.012-.489-.168-.565-.26-.545-.661-1.582-1.22-2.298-.76-.145.093-.328.242-.407.4-.182.36-.157.643.073.953.128.172.195.259.194.264-.004.033-.128.192-.327.477l-.09.21c-.17.869 1.072 1.578 1.777 1.217.193-.1.436-.205.611-.355.388-.328.675-.735 1.132-.766.417-.028.953.879 1.599 1.157.761.325 1.913-.293 1.761-1.217l-.091-.21c-.198-.285-.322-.444-.326-.477 0-.005.065-.092.194-.264.229-.31.254-.593.073-.953-.08-.158-.263-.307-.406-.4-.718-.461-1.806.008-2.336.706-.144.189-.351.291-.568.278" fill-rule="evenodd" transform="translate(21.646978 27.023064)"/></g><path d="m0 0 .075-25.086" fill="none" stroke="#00ae4d" stroke-miterlimit="2.613" stroke-width=".564" transform="translate(21.671978 50.602064)"/><path d="m0 0v9.614h3.291l2.966-4.304v4.304h3.054v-9.614l-3.014.04-2.731 3.805-.08-3.845" fill="#00ae4d" fill-rule="evenodd" transform="translate(34.063978 .983064)"/><path d="m29.295978.9830638h3.2549v9.6136002h-3.2549z" fill="#00ae4d"/><path d="m0 0h3.476v-4.781c0-.571-.325-2.248 1.021-2.288 1.008-.03.913 1.577.913 2.288v4.781h3.441v-5.435c0-1.5-.359-2.596-1.074-3.295-.718-.697-1.85-1.046-3.397-1.046-1.537 0-2.651.345-3.342 1.032-.692.69-1.038 1.791-1.038 3.309" fill="#00ae4d" fill-rule="evenodd" transform="translate(8.862978 10.596064)"/><path d="m0 0v-2.484h-7.42v9.625h3.418v-7.141" fill="#00ae4d" fill-rule="evenodd" transform="translate(8.385978 3.455064)"/><path d="m0 0v-1.409h1.006c.737 0 .936.445.936.684 0 .572-.437.725-.73.725zm-3.338-7.022v9.612h4.779c1.166 0 2.012-.232 2.54-.694 1.545-1.356 1.78-3.431.295-4.947-.552-.565-1.242-.848-1.9-.848h-2.389v-3.123" fill="#00ae4d" fill-rule="evenodd" transform="translate(22.809978 8.006064)"/></g></svg>