<?xml version="1.0" standalone="no"?>
<!DOCTYPE svg PUBLIC "-//W3C//DTD SVG 20010904//EN"
 "http://www.w3.org/TR/2001/REC-SVG-20010904/DTD/svg10.dtd">
<svg version="1.0" xmlns="http://www.w3.org/2000/svg"
 width="801.000000pt" height="801.000000pt" viewBox="0 0 801.000000 801.000000"
 preserveAspectRatio="xMidYMid meet">

<g transform="translate(0.000000,801.000000) scale(0.100000,-0.100000)"
fill="#000000" stroke="none">
<path d="M0 4005 l0 -4005 4005 0 4005 0 0 4005 0 4005 -4005 0 -4005 0 0
-4005z m4398 1261 c244 -53 441 -162 623 -345 183 -184 292 -377 358 -636 34
-137 44 -247 38 -440 -4 -143 -10 -201 -30 -285 -65 -275 -176 -479 -362 -666
-241 -242 -531 -364 -867 -364 -267 0 -480 76 -679 242 l-59 49 0 -571 0 -570
-375 0 -375 0 0 1765 0 1765 360 0 360 0 0 -112 0 -112 33 30 c138 129 342
226 545 259 108 18 328 13 430 -9z m-2772 -656 c422 -107 654 -552 501 -960
-107 -283 -376 -470 -677 -470 -504 0 -852 495 -685 973 36 103 81 173 175
268 139 141 299 207 501 208 74 1 129 -5 185 -19z m5113 4 c36 -8 107 -36 158
-61 171 -83 300 -232 364 -421 29 -88 33 -108 33 -217 0 -141 -16 -212 -74
-330 -119 -241 -344 -388 -615 -402 -255 -13 -499 110 -640 322 -107 162 -146
382 -101 570 63 260 267 467 526 534 95 25 258 27 349 5z"/>
<path d="M3925 4546 c-265 -52 -445 -228 -506 -494 -6 -26 -10 -93 -11 -149 0
-309 186 -554 477 -628 76 -19 232 -19 315 1 237 56 418 246 466 494 33 167 2
354 -82 492 -130 213 -408 333 -659 284z"/>
</g>
</svg>
